<?xml version="1.0" encoding="utf-8"?>
<!-- Generator: Adobe Illustrator 23.0.3, SVG Export Plug-In . SVG Version: 6.00 Build 0)  -->
<svg width="24" height="24" viewBox="0 0 24 24" fill="none" xmlns="http://www.w3.org/2000/svg">
<path fill-rule="evenodd" clip-rule="evenodd" d="M0 5C0 3.34315 1.34315 2 3 2H17C18.6569 2 20 3.34315 20 5H21C22.6569 5 24 6.34315 24 8V19C24 20.6569 22.6569 22 21 22H16C14.6938 22 13.5825 21.1652 13.1707 20H7C6.44772 20 6 19.5523 6 19C6 18.4477 6.44772 18 7 18H9V16H3C1.34315 16 0 14.6569 0 13V5ZM11 16V18H13V16H11ZM13 14V8C13 6.34315 14.3431 5 16 5H18C18 4.44772 17.5523 4 17 4H3C2.44772 4 2 4.44772 2 5V13C2 13.5523 2.44772 14 3 14H13ZM16 7C15.4477 7 15 7.44772 15 8V19C15 19.5523 15.4477 20 16 20H21C21.5523 20 22 19.5523 22 19V8C22 7.44772 21.5523 7 21 7H16ZM17 10C17 9.44772 17.4477 9 18 9H19C19.5523 9 20 9.44772 20 10C20 10.5523 19.5523 11 19 11H18C17.4477 11 17 10.5523 17 10Z" fill="currentColor"></path>
</svg>